<svg version="1.1" xmlns="http://www.w3.org/2000/svg" xmlns:xlink="http://www.w3.org/1999/xlink" x="0px" y="0px" viewBox="0 0 513.1 513.1" style="enable-background:new 0 0 513.1 513.1;" xml:space="preserve">
<style type="text/css">
	.st0{fill:rgba(0, 0, 0, 0);}
	.st1{fill:#D9F2FE;}
	.st2{fill:#A3E3FD;}
	.st3{fill:#01B6FA;}
	.st4{fill:#01C2F9;}
	.st5{fill:#60D4FD;}
</style>
<g>
	<g>
		<path class="st0" d="M1,299C1,199.7,1,100.3,1,1c169.2,0,338.3,0,507.5-0.1c3.7,0,4.6,0.8,4.6,4.6c-0.1,167.7-0.1,335.3,0,503
			c0,3.7-0.8,4.6-4.6,4.6C410.7,513,312.8,513,215,513c0.7-1.8,2.5-2.1,3.9-2.9c13.3-7.5,26.6-15,39.9-22.6
			c34.9-19.9,69.9-39.8,104.7-59.8c5.3-3.1,11.6-4.9,15.6-10.2c0.3-0.5,0.8-1.1,1-1.6c7.4-20.8,14.8-41.6,22.2-62.4
			c31.1-87.2,62.3-174.3,93.4-261.5c0.6-1.7,1.7-3.3,1-5.3c-4-11.2-7.1-22.8-11.7-33.9c-3.2-5-8-8.6-12.1-12.7
			c-3.7-4-6.9-8.6-12-11.1c-10.1-3.5-20.2-6.8-30.2-10.4c-3.1-1.1-5.8-1.2-9,0c-79.3,28.4-158.6,56.7-237.9,85
			c-28.8,10.3-57.7,20.5-86.6,30.7c-1.5-0.3-1.9,0.6-2.5,1.8c-13.7,24.3-27.5,48.6-41.3,72.8C39.2,233.8,25,259,10.4,283.9
			C7.4,289,5.7,294.9,1,299z"/>
		<path class="st0" d="M213,513c-69.3,0-138.7,0-208,0.1c-3.4,0-4.1-0.7-4.1-4.1C1,439.7,1,370.3,1,301c1.8,0.7,3.7,1.4,5.5,2.3
			c27.8,13.9,55.6,27.8,83.4,41.7c1.9,1,3.7,2.3,6,2c0.5,0.8,1.3,0.9,2.2,1c21,1.7,41.9,3.4,62.9,5.1c-0.4,3.5,0.7,6.9,1,10.3
			c1,14.5,1.8,29,3.3,43.5c0.3,3.3-0.2,7,1.7,10.1c-0.4,2.7,1,4.8,2.1,7c14,28,28,55.9,41.9,83.9C211.8,509.6,212.3,511.3,213,513z"
			/>
		<path class="st1" d="M96,347c-2.3,0.3-4.1-1.1-6-2c-27.8-13.9-55.6-27.8-83.4-41.7c-1.8-0.9-3.7-1.5-5.5-2.3c0-0.7,0-1.3,0-2
			c4.7-4.1,6.4-10,9.4-15.1c14.5-25,28.8-50.1,43.1-75.2c13.8-24.2,27.6-48.5,41.3-72.8c0.6-1.1,1-2.1,2.5-1.8
			c0.1,2.5,2.4,2.1,3.7,2.6c55.6,19.8,111.2,39.5,166.9,59.3c0.2,1.4-0.7,2.2-1.6,2.9c-18.5,16.2-37.1,32.3-55.6,48.5
			c-22.4,19.5-44.8,39-67.3,58.5C127.7,319.7,111.8,333.3,96,347z"/>
		<path class="st2" d="M213,513c-0.7-1.7-1.2-3.4-2.1-5C197,480,183,452,169,424c-1.1-2.2-2.5-4.4-2.1-7c2.3-1.2,3.8-3.2,5.4-5.1
			c12.6-14.5,25.2-29.1,37.8-43.6c9.7-11.1,19.5-22.2,29.2-33.4c12.9-14.8,25.7-29.6,38.5-44.4c7.8-9,15.5-18.2,23.5-27.1
			c5.3-5.9,10-12.3,16-17.6c0.5,1.1,1,2.1,1.4,3.2c14.4,40.5,28.7,81.1,43.2,121.6c5.6,15.6,10.5,31.5,17,46.8
			c-4,5.3-10.2,7.1-15.6,10.2c-34.8,20.1-69.8,39.9-104.7,59.8c-13.3,7.6-26.6,15-39.9,22.6c-1.4,0.8-3.2,1.2-3.9,2.9
			C214.3,513,213.7,513,213,513z"/>
		<path class="st3" d="M379.1,417.5c-6.5-15.3-11.4-31.1-17-46.8c-14.5-40.5-28.8-81.1-43.2-121.6c-0.4-1.1-0.9-2.1-1.4-3.2
			c0.1-1,0.2-1.9,0.3-2.9c1.7,0.1,2.5-1.1,3.5-2.3c7.3-8.6,14.7-17.1,22.1-25.5c10.3-11.7,20.6-23.3,30.9-35
			c10.8-12.3,21.5-24.8,32.2-37.1c7.6-8.7,15.4-17.4,23-26.1c10.3-11.9,20.5-23.8,30.8-35.7c8.2-9.5,16.5-19,24.8-28.4
			c4.6,11,7.6,22.6,11.7,33.9c0.7,1.9-0.4,3.6-1,5.3c-31.1,87.2-62.3,174.3-93.4,261.5c-7.4,20.8-14.8,41.6-22.2,62.4
			C379.9,416.4,379.4,416.9,379.1,417.5z"/>
		<path class="st4" d="M267.9,196.1c-55.6-19.7-111.3-39.5-166.9-59.3c-1.3-0.5-3.6-0.1-3.7-2.6c28.9-10.2,57.7-20.4,86.6-30.7
			c79.3-28.3,158.6-56.6,237.9-85c3.2-1.1,5.9-1.1,9,0c10,3.6,20.1,7,30.2,10.4c-3.1,3-6.2,6-9.4,8.9
			c-21.5,18.6-43.2,37.2-64.7,55.8c-17.9,15.5-35.8,31-53.6,46.6c-19.4,17-38.8,34.1-58.2,51.2c-1.3,1.1-4.2,1.5-3.4,3.6
			c0.8,2,3.6,0.5,5.4,1.1C274.1,197.7,271,197.2,267.9,196.1z"/>
		<path class="st3" d="M277.2,196.1c-1.8-0.5-4.6,1-5.4-1.1c-0.8-2.1,2.2-2.5,3.4-3.6c19.3-17.1,38.7-34.2,58.2-51.2
			c17.8-15.6,35.7-31.1,53.6-46.6c21.5-18.6,43.2-37.2,64.7-55.8c3.3-2.8,6.3-5.9,9.4-8.9c5.1,2.5,8.3,7.1,12,11.1
			c-0.1,2.3-2,3.4-3.3,4.7c-49,49.1-98.1,98.1-147.1,147.1c-1.2,1.2-2.5,2.1-3.8,3.2c-0.2,0-0.4,0.1-0.6,0.1
			C304.5,194.1,290.8,196.7,277.2,196.1z"/>
		<path class="st4" d="M318.8,195.1c1.3-1.1,2.6-2,3.8-3.2c49.1-49,98.1-98.1,147.1-147.1c1.4-1.4,3.3-2.4,3.3-4.7
			c4.1,4.1,8.9,7.7,12.1,12.7c-8.3,9.5-16.6,18.9-24.8,28.4c-10.3,11.9-20.5,23.8-30.8,35.7c-7.6,8.7-15.3,17.4-23,26.1
			c-10.8,12.4-21.4,24.8-32.2,37.1c-10.3,11.7-20.6,23.3-30.9,35c-7.4,8.5-14.8,17-22.1,25.5c-1,1.2-1.8,2.4-3.5,2.3
			C317.5,227,319.9,211.1,318.8,195.1z"/>
		<path class="st1" d="M318.8,195.1c1.1,16-1.2,31.9-1.1,47.8c-0.1,1-0.2,1.9-0.3,2.9c-6,5.3-10.7,11.7-16,17.6
			c-8,8.9-15.6,18.1-23.5,27.1c-12.8,14.8-25.6,29.6-38.5,44.4c-9.7,11.1-19.5,22.2-29.2,33.4c-12.6,14.5-25.2,29.1-37.8,43.6
			c-1.6,1.9-3.1,3.9-5.4,5.1c-1.9-3.1-1.4-6.8-1.7-10.1c-1.5-14.5-2.2-29-3.3-43.5c-0.2-3.5-1.4-6.8-1-10.3c1.3-1.5,2.6-3,4-4.4
			c49.7-49.7,99.4-99.4,149-149c1.4-1.4,2.7-2.9,4.1-4.4C318.4,195.2,318.6,195.2,318.8,195.1z"/>
		<path class="st5" d="M318.2,195.3c-1.4,1.5-2.7,3-4.1,4.4c-49.7,49.7-99.4,99.4-149,149c-1.4,1.4-2.7,2.9-4,4.4
			c-21-1.7-41.9-3.4-62.9-5.1c-0.8-0.1-1.6-0.2-2.2-1c15.8-13.7,31.7-27.3,47.5-41c22.5-19.5,44.9-39,67.3-58.5
			c18.5-16.1,37.1-32.3,55.6-48.5c0.9-0.8,1.8-1.6,1.6-2.9c3.1,1.1,6.2,1.7,9.2,0C290.8,196.7,304.5,194.1,318.2,195.3z"/>
	</g>
</g>
</svg>
