<?xml version="1.0" standalone="no"?>
<!DOCTYPE svg PUBLIC "-//W3C//DTD SVG 20010904//EN"
 "http://www.w3.org/TR/2001/REC-SVG-20010904/DTD/svg10.dtd">
<svg version="1.0" xmlns="http://www.w3.org/2000/svg"
 width="1000.000000pt" height="1000.000000pt" viewBox="0 0 1000.000000 1000.000000"
 preserveAspectRatio="xMidYMid meet">
<metadata>
Created by potrace 1.11, written by Peter Selinger 2001-2013
</metadata>
<g transform="translate(0.000000,1000.000000) scale(0.100000,-0.100000)"
fill="#000000" stroke="none">
<path d="M8215 9634 c-27 -8 -59 -19 -70 -25 -12 -6 -27 -11 -35 -13 -8 -2
-24 -6 -35 -10 -11 -5 -37 -14 -57 -22 -21 -7 -203 -73 -405 -144 -203 -72
-404 -145 -448 -161 -44 -17 -84 -32 -90 -33 -12 -2 -130 -44 -160 -56 -11 -5
-99 -36 -195 -70 -96 -33 -184 -65 -195 -70 -11 -5 -65 -24 -120 -44 -55 -19
-131 -46 -170 -60 -38 -14 -72 -27 -75 -27 -3 -1 -9 -3 -15 -5 -119 -41 -164
-57 -180 -64 -24 -10 -413 -149 -435 -155 -13 -3 -188 -66 -420 -150 -36 -13
-144 -51 -240 -85 -96 -34 -184 -66 -195 -70 -11 -5 -74 -27 -140 -50 -66 -23
-136 -48 -155 -55 -19 -8 -208 -75 -420 -150 -212 -75 -394 -141 -405 -146
-11 -5 -33 -13 -50 -18 -16 -5 -88 -30 -160 -56 -71 -26 -141 -50 -155 -55
-28 -9 -292 -103 -355 -126 -22 -8 -65 -23 -95 -33 -30 -11 -107 -38 -170 -60
-63 -23 -239 -85 -390 -137 -151 -53 -284 -99 -295 -104 -17 -6 -179 -285
-461 -789 -36 -65 -240 -424 -356 -626 -44 -77 -92 -160 -106 -185 -58 -103
-110 -195 -337 -590 -131 -228 -246 -428 -255 -445 -125 -216 -165 -288 -214
-381 -31 -60 -72 -126 -91 -148 -19 -21 -35 -44 -35 -52 0 -8 21 -24 48 -36
26 -11 427 -211 892 -443 465 -232 861 -426 880 -430 19 -4 40 -11 45 -15 6
-4 57 -11 115 -14 58 -4 121 -9 140 -11 41 -4 157 -13 370 -30 41 -3 95 -8
120 -10 25 -3 81 -7 125 -11 44 -3 96 -7 115 -8 19 -2 78 -6 130 -10 119 -9
126 -11 126 -39 1 -20 8 -85 20 -172 2 -16 6 -75 9 -130 3 -55 8 -127 11 -160
2 -33 7 -91 9 -130 5 -77 14 -200 20 -255 2 -19 6 -75 10 -125 9 -129 16 -185
26 -212 5 -14 9 -37 9 -53 0 -18 165 -359 438 -907 241 -483 444 -893 453
-912 l15 -33 29 24 c17 14 50 36 75 50 25 14 114 64 197 111 84 48 156 87 159
87 3 0 18 8 32 19 15 10 50 31 77 45 28 15 73 41 100 57 28 16 91 52 140 80
134 75 144 81 212 122 35 20 65 37 67 37 3 0 37 19 78 43 70 42 93 55 238 135
36 20 67 40 68 44 2 4 9 8 15 8 7 0 38 16 70 35 31 19 83 49 115 66 31 18 114
65 185 106 70 40 132 73 137 73 6 0 10 5 10 10 0 6 4 10 9 10 5 0 96 50 202
111 107 62 219 125 249 142 30 16 67 38 82 49 14 10 29 18 32 18 3 0 51 27
107 60 55 33 103 60 105 60 2 0 32 17 66 38 35 21 101 58 148 81 107 55 158
89 197 136 38 44 33 31 248 640 64 182 122 346 130 365 8 19 44 121 80 225 36
105 70 199 75 210 8 18 26 68 111 310 15 44 35 100 44 125 45 124 133 370 175
490 26 74 93 261 148 415 55 154 123 343 150 420 28 77 57 158 65 180 8 22 34
94 57 160 23 66 45 129 50 140 4 11 38 106 75 210 37 105 85 237 106 295 22
58 39 109 39 114 0 4 6 22 14 39 14 31 41 107 112 312 19 55 38 107 41 115 3
8 7 17 8 20 1 3 4 12 7 20 3 8 16 44 28 80 12 36 26 74 30 85 11 26 42 112
141 390 148 416 170 479 196 550 13 39 37 106 53 150 15 44 47 132 70 195 23
63 44 122 47 132 4 13 -66 248 -97 323 -4 11 -18 52 -29 90 -39 128 -103 290
-126 320 -12 17 -76 84 -141 150 -66 67 -140 144 -166 172 -59 64 -118 104
-183 125 -27 9 -156 53 -285 98 -247 86 -325 110 -350 109 -8 0 -37 -7 -65
-15z"/>
</g>
</svg>
